<svg width="32" height="32" xmlns="http://www.w3.org/2000/svg">
  <path fill-rule="evenodd" clip-rule="evenodd" d="M13 14.328V15a2.996 2.996 0 0 0 3.61 2.938L13 14.328zm5.175 5.175A5.002 5.002 0 0 1 11 15H9c0 3.53 2.61 6.43 6 6.92V25h2v-3.08a6.996 6.996 0 0 0 2.642-.95l-1.467-1.467zm4.151-1.505-1.542-1.542A5 5 0 0 0 21 15h2c0 1.074-.242 2.09-.674 2.998zM19 14.672l-2-2V9c0-.55-.45-1-1-1s-1 .45-1 1v1.672l-1.984-1.984A2.996 2.996 0 0 1 16 6c1.66 0 3 1.34 3 3v5.672z" fill="#FFFFFF"></path>
  <path fill-rule="evenodd" clip-rule="evenodd" d="m25.123 26.457-20-20 1.414-1.414 20 20-1.414 1.414z" fill="#EC0038"></path>
</svg>