<?xml version="1.0" encoding="utf-8"?>
<!-- Generator: Adobe Illustrator 28.1.0, SVG Export Plug-In . SVG Version: 6.00 Build 0)  -->
<svg version="1.1" xmlns="http://www.w3.org/2000/svg" xmlns:xlink="http://www.w3.org/1999/xlink" x="0px" y="0px"
	 viewBox="0 0 20 20" style="enable-background:new 0 0 20 20;" xml:space="preserve">
<style type="text/css">
	.st0{fill-rule:evenodd;clip-rule:evenodd;fill:#505F79;}
	.st1{fill:#FFFFFF;}
</style>
<g id="Layer_1">
	<path class="st0" d="M7,2C3.7,2,1,4.7,1,8s2.7,6,6,6s6-2.7,6-6S10.3,2,7,2z M5.1,7.1c0-1,0.9-1.9,1.9-1.9s1.9,0.9,1.9,1.9l0,0
		C8.9,8.1,8,9,7,9C5.9,9,5.1,8.2,5.1,7.1z M9.8,11.5c-0.8,0.7-1.8,1-2.8,1s-2.1-0.3-2.8-1C4.7,10.6,5.7,10,6.8,10h0.5
		C8.3,10,9.3,10.6,9.8,11.5L9.8,11.5z"/>
</g>
<g id="Layer_2">
	<path class="st1" d="M16,3v3.6h-4.4V3H16z M16.4,2.1h-5.3c-0.2,0-0.4,0.2-0.4,0.4V7c0,0.2,0.2,0.4,0.4,0.4h5.3
		c0.2,0,0.4-0.2,0.4-0.4V5.4l1.8,1.8V2.3l-1.8,1.8V2.5C16.9,2.3,16.7,2.1,16.4,2.1z"/>
</g>
</svg>
