<svg width="64" height="36" fill="none" xmlns="http://www.w3.org/2000/svg" viewBox="-8 -14 80 64">
    <g clip-path="url(#contain-scenes_svg__a)">
        <path
            d="M0 6.4c0-2.24 0-3.36.436-4.216A4 4 0 0 1 2.184.436C3.04 0 4.16 0 6.4 0h51.2c2.24 0 3.36 0 4.216.436a4 4 0 0 1 1.748 1.748C64 3.04 64 4.16 64 6.4v23.2c0 2.24 0 3.36-.436 4.216a4 4 0 0 1-1.748 1.748C60.96 36 59.84 36 57.6 36H6.4c-2.24 0-3.36 0-4.216-.436a4 4 0 0 1-1.748-1.748C0 32.96 0 31.84 0 29.6V6.4Z"
            fill="#EBECF0"></path>
        <path
            d="M0 6.4c0-2.24 0-3.36.436-4.216A4 4 0 0 1 2.184.436C3.04 0 4.16 0 6.4 0h51.2c2.24 0 3.36 0 4.216.436a4 4 0 0 1 1.748 1.748C64 3.04 64 4.16 64 6.4v23.2c0 2.24 0 3.36-.436 4.216a4 4 0 0 1-1.748 1.748C60.96 36 59.84 36 57.6 36H6.4c-2.24 0-3.36 0-4.216-.436a4 4 0 0 1-1.748-1.748C0 32.96 0 31.84 0 29.6V6.4Z"
            stroke="#EBECF0"></path>
        <path
            d="M3 4.5A1.5 1.5 0 0 1 4.5 3h55A1.5 1.5 0 0 1 61 4.5v27a1.5 1.5 0 0 1-1.5 1.5h-55A1.5 1.5 0 0 1 3 31.5v-27Z"
            fill="#505F79"></path>
        <path
            d="M3 4.5A1.5 1.5 0 0 1 4.5 3h55A1.5 1.5 0 0 1 61 4.5v27a1.5 1.5 0 0 1-1.5 1.5h-55A1.5 1.5 0 0 1 3 31.5v-27Z"
            stroke="#EBECF0"></path>
        <path fill-rule="evenodd" clip-rule="evenodd"
            d="M29.858 19.667h4.285c.484 0 .814 0 1.103.05a3.333 3.333 0 0 1 2.704 2.704c.05.288.05.619.05 1.103 0 .106.003.212-.015.316a1 1 0 0 1-1.045.827 919.014 919.014 0 0 0-9.88 0c-.047 0-.143 0-.233-.016a1 1 0 0 1-.812-.81c-.018-.105-.015-.211-.015-.317 0-.485 0-.815.05-1.103a3.333 3.333 0 0 1 2.705-2.704c.288-.05.618-.05 1.103-.05ZM28.334 15a3.667 3.667 0 1 1 7.333 0 3.667 3.667 0 0 1-7.334 0Z"
            fill="#EBECF0"></path>
    </g>
    <defs>
        <clipPath id="contain-scenes_svg__a">
            <rect width="64" height="36" rx="4" fill="#fff"></rect>
        </clipPath>
    </defs>
</svg>