<?xml version="1.0" encoding="utf-8"?>
<!-- Generator: Adobe Illustrator 28.1.0, SVG Export Plug-In . SVG Version: 6.00 Build 0)  -->
<svg version="1.1" id="Layer_1" xmlns="http://www.w3.org/2000/svg" xmlns:xlink="http://www.w3.org/1999/xlink" x="0px" y="0px"
	 viewBox="0 0 512 512" style="enable-background:new 0 0 512 512;" xml:space="preserve">
<style type="text/css">
	.st0{fill:#EBECF0;}
</style>
<g>
	<path class="st0" d="M278.4,61.5c-53.7-7.3-107.7,12.9-143,53.3c-30.4,34.8-44.2,81.3-37.9,127.6c8.5,62.3,55.3,115.3,116.6,132
		c13.8,3.8,27.9,5.7,41.9,5.7l2.3,0c16.5-0.3,31.6-8.8,40.3-22.8c8.7-14,9.6-31.3,2.4-46.1l-3.2-6.7c-6.7-13.9-1.9-25.1,1.5-30.6
		c8.6-13.7,26-19.4,41.2-12.1l6.6,3.2c6.6,3.2,13.6,4.8,20.8,4.8c26.1,0,47.7-21.3,48.1-47.5c0.2-14.7-1.7-29.6-5.7-44.2
		C393.7,116.8,340.7,70,278.4,61.5z M360.9,236.1l-6.6-3.2c-29.2-14.1-65.1-3.2-82.2,23.9c-11.8,18.8-13,41.2-3.3,61.5l3.2,6.7
		c2.4,5,2.1,10.6-0.8,15.4c-3,4.8-7.9,7.6-13.5,7.7H256c-11.1,0-22.4-1.6-33.5-4.5c-49-13.3-86.5-55.7-93.2-105.4
		c-5.1-37.7,5.6-74,30.3-102.3C183.8,108,219,92,256,92c6,0,12.1,0.4,18.1,1.2c49.7,6.8,92.1,44.2,105.4,93.2
		c3.2,11.7,4.7,23.6,4.5,35.3C383.8,234.7,370.5,240.7,360.9,236.1z"/>
	<circle class="st0" cx="184" cy="260" r="24"/>
	<circle class="st0" cx="184" cy="196" r="24"/>
	<circle class="st0" cx="232" cy="148" r="24"/>
	<circle class="st0" cx="296" cy="148" r="24"/>
</g>
</svg>
