<?xml version="1.0" encoding="utf-8"?>
<!-- Generator: Adobe Illustrator 28.1.0, SVG Export Plug-In . SVG Version: 6.00 Build 0)  -->
<svg version="1.1" id="Layer_1" xmlns="http://www.w3.org/2000/svg" xmlns:xlink="http://www.w3.org/1999/xlink" x="0px" y="0px"
	 viewBox="0 0 24 24" style="enable-background:new 0 0 24 24;" xml:space="preserve">
<style type="text/css">
	.st0{fill:#FFFFFF;}
	.st1{fill-rule:evenodd;clip-rule:evenodd;fill:#FFFFFF;}
	.st2{fill-rule:evenodd;clip-rule:evenodd;fill:#EC0038;}
</style>
<path class="st0" d="M11.2,11.2v3.3h1.7v-3.3h2.5L12,7.8l-3.3,3.3L11.2,11.2L11.2,11.2z"/>
<path class="st1" d="M18,5.2c0.8,0,1.5,0.7,1.5,1.5v9c0,0.8-0.7,1.5-1.5,1.5h-3v1.5H9v-1.5H6c-0.8,0-1.5-0.7-1.5-1.5v-9
	c0-0.8,0.7-1.5,1.5-1.5C6,5.2,18,5.2,18,5.2z M6,6.8v9h12v-9H6z"/>
<path class="st2" d="M18.5,18.7L4.5,5.9l1-0.9l14,12.8L18.5,18.7z"/>
</svg>
